<svg width="487" height="478" viewBox="0 0 487 478" fill="none" xmlns="http://www.w3.org/2000/svg">
<g clip-path="url(#clip0_48_100)">
<path d="M439.24 45.12L425.28 59.08" stroke="#263238" stroke-linecap="round" stroke-linejoin="round"/>
<path d="M425.28 45.12L439.24 59.08" stroke="#263238" stroke-linecap="round" stroke-linejoin="round"/>
<path d="M45.62 411.85L31.66 425.81" stroke="#263238" stroke-linecap="round" stroke-linejoin="round"/>
<path d="M31.66 411.85L45.62 425.81" stroke="#263238" stroke-linecap="round" stroke-linejoin="round"/>
<path d="M354.1 119.05L344.6 128.54" stroke="#263238" stroke-linecap="round" stroke-linejoin="round"/>
<path d="M344.6 119.05L354.1 128.54" stroke="#263238" stroke-linecap="round" stroke-linejoin="round"/>
<path d="M112.44 345.36L102.95 354.85" stroke="#263238" stroke-linecap="round" stroke-linejoin="round"/>
<path d="M102.95 345.36L112.44 354.85" stroke="#263238" stroke-linecap="round" stroke-linejoin="round"/>
<path d="M401.49 432L392 441.49" stroke="#263238" stroke-linecap="round" stroke-linejoin="round"/>
<path d="M392 432L401.49 441.49" stroke="#263238" stroke-linecap="round" stroke-linejoin="round"/>
<path d="M115.43 18.21L105.93 27.7" stroke="#263238" stroke-linecap="round" stroke-linejoin="round"/>
<path d="M105.93 18.21L115.43 27.7" stroke="#263238" stroke-linecap="round" stroke-linejoin="round"/>
<path d="M424.12 100.37C424.12 97.07 426.8 94.39 430.1 94.39C433.4 94.39 436.08 97.07 436.08 100.37C436.08 103.67 433.4 106.35 430.1 106.35C426.8 106.35 424.12 103.67 424.12 100.37Z" stroke="#263238" stroke-linecap="round" stroke-linejoin="round"/>
<path d="M231.42 21.2C231.42 17.9 234.1 15.22 237.4 15.22C240.7 15.22 243.38 17.9 243.38 21.2C243.38 24.5 240.7 27.18 237.4 27.18C234.1 27.18 231.42 24.5 231.42 21.2Z" stroke="#263238" stroke-linecap="round" stroke-linejoin="round"/>
<path d="M45.4301 358.06C42.1274 358.06 39.45 355.383 39.45 352.08C39.45 348.777 42.1274 346.1 45.4301 346.1C48.7327 346.1 51.41 348.777 51.41 352.08C51.41 355.383 48.7327 358.06 45.4301 358.06Z" stroke="#263238" stroke-linecap="round" stroke-linejoin="round"/>
<path d="M271.75 459.64C271.75 456.34 274.43 453.66 277.73 453.66C281.03 453.66 283.71 456.34 283.71 459.64C283.71 462.94 281.03 465.62 277.73 465.62C274.43 465.62 271.75 462.94 271.75 459.64Z" stroke="#263238" stroke-linecap="round" stroke-linejoin="round"/>
<path d="M363.62 304.28C363.62 300.98 366.3 298.3 369.6 298.3C372.9 298.3 375.58 300.98 375.58 304.28C375.58 307.58 372.9 310.26 369.6 310.26C366.3 310.26 363.62 307.58 363.62 304.28Z" stroke="#263238" stroke-linecap="round" stroke-linejoin="round"/>
<path d="M7.34003 122.78C7.34003 119.48 10.02 116.8 13.32 116.8C16.62 116.8 19.3 119.48 19.3 122.78C19.3 126.08 16.62 128.76 13.32 128.76C10.02 128.76 7.34003 126.08 7.34003 122.78Z" stroke="#263238" stroke-linecap="round" stroke-linejoin="round"/>
<path d="M0.5 222.61H485.51" stroke="#263238" stroke-linecap="round" stroke-linejoin="round"/>
<path d="M445.69 280.36L443.06 304.27C443.06 311.29 431.27 316.99 416.74 316.99C402.21 316.99 390.42 311.3 390.42 304.27L387.79 280.36H445.7H445.69Z" fill="#BABDBF" stroke="#263238" stroke-linecap="round" stroke-linejoin="round"/>
<path d="M447.58 266.23V280.97C447.58 284.74 433.77 289.42 416.73 289.42C399.69 289.42 385.88 284.73 385.88 280.97V266.23H447.57H447.58Z" fill="#BABDBF" stroke="#263238" stroke-linecap="round" stroke-linejoin="round"/>
<path d="M416.73 274.97C399.692 274.97 385.88 271.057 385.88 266.23C385.88 261.403 399.692 257.49 416.73 257.49C433.768 257.49 447.58 261.403 447.58 266.23C447.58 271.057 433.768 274.97 416.73 274.97Z" fill="#BABDBF" stroke="#263238" stroke-linecap="round" stroke-linejoin="round"/>
<path d="M416.73 273.04C403.453 273.04 392.69 269.991 392.69 266.23C392.69 262.469 403.453 259.42 416.73 259.42C430.007 259.42 440.77 262.469 440.77 266.23C440.77 269.991 430.007 273.04 416.73 273.04Z" fill="#263238"/>
<path d="M469.72 180.9C466.86 181.68 460.32 180.58 460.31 180.58C460.24 180.57 462.35 176.48 462.51 176.24C464.39 173.43 469.67 169.12 473.31 170.15C475.93 170.9 477.03 173.79 476.06 176.22C475.07 178.7 472.16 180.23 469.73 180.9H469.72Z" fill="#263238"/>
<path d="M403.06 172.71C403 172.74 402.5 168.17 402.5 167.88C402.52 164.5 404.54 157.99 408.15 156.85C410.75 156.03 413.26 157.83 413.79 160.39C414.33 163 412.75 165.88 411.09 167.78C409.14 170.01 403.07 172.7 403.07 172.71H403.06Z" fill="#263238"/>
<path d="M386.9 146.06C390.68 146.2 394.36 151.94 395.28 155.19C395.36 155.47 396.09 160.01 396.02 160C396.02 160 395.96 160 395.94 159.99C396.53 160.89 397.15 161.87 397.81 162.94C399.01 164.94 400.34 167.21 401.62 169.78C402.91 172.34 404.24 175.17 405.37 178.26C406.51 181.36 407.55 184.69 408.18 188.25C408.18 188.29 408.18 188.33 408.2 188.37C408.34 187.27 408.83 184.21 408.9 183.98C409.81 180.73 413.48 174.98 417.26 174.83C419.98 174.72 421.93 177.13 421.77 179.74C421.6 182.4 419.31 184.76 417.21 186.16C414.84 187.73 408.75 188.7 408.26 188.78C408.83 192.18 409.13 195.71 409.25 199.31C409.32 201.36 409.32 203.44 409.3 205.51C409.45 204.56 409.59 203.72 409.63 203.6C410.54 200.35 414.21 194.6 417.99 194.45C420.71 194.34 422.66 196.75 422.5 199.36C422.33 202.03 420.04 204.38 417.94 205.78C415.81 207.19 410.63 208.13 409.26 208.35C409.24 209.15 409.23 209.94 409.21 210.74C409.11 214.56 409 218.38 409.01 222.12C409.01 223.44 409.06 224.74 409.11 226.04C409.25 225.2 409.37 224.49 409.4 224.39C410.31 221.14 413.98 215.39 417.76 215.24C420.48 215.13 422.43 217.54 422.26 220.15C422.09 222.81 419.8 225.17 417.7 226.57C415.66 227.92 410.89 228.82 409.26 229.1C409.35 230.43 409.43 231.76 409.57 233.05C409.69 233.93 409.74 234.78 409.91 235.65C410.06 236.52 410.2 237.38 410.35 238.23C410.69 239.86 411.03 241.54 411.4 243.12C411.65 244.22 411.91 245.26 412.16 246.32C412.14 245.01 412.16 242.44 412.19 242.22C412.46 239.99 413.77 236.5 415.71 234.19C415.75 233.86 415.81 233.54 415.91 233.22C416.69 230.73 419.37 229.18 421.87 230.25C425.35 231.74 426.72 238.42 426.41 241.78C426.39 241.98 425.95 244.11 425.65 245.45C425.95 244.69 426.22 243.95 426.54 243.17C427.15 241.63 427.81 240.1 428.51 238.46C428.88 237.68 429.24 236.89 429.62 236.09C429.97 235.29 430.45 234.49 430.86 233.69C431.86 231.84 432.96 230.01 434.11 228.19C432.76 227.65 427.99 225.67 426.22 223.85C424.46 222.04 422.72 219.25 423.12 216.61C423.51 214.03 425.92 212.09 428.56 212.77C432.22 213.71 434.59 220.11 434.79 223.48C434.8 223.69 434.67 226.13 434.58 227.46C435.28 226.37 435.97 225.28 436.72 224.21C438.87 221.1 441.14 218.02 443.39 214.94C444.08 214 444.76 213.05 445.44 212.1C444.96 211.91 439.23 209.68 437.25 207.65C435.49 205.84 433.75 203.05 434.15 200.41C434.54 197.83 436.95 195.89 439.59 196.57C443.25 197.51 445.62 203.91 445.82 207.28C445.83 207.53 445.65 211.04 445.55 211.93C447.05 209.84 448.52 207.75 449.89 205.63C451.78 202.7 453.48 199.73 454.91 196.72C454.69 196.63 448.7 194.33 446.67 192.25C444.91 190.44 443.17 187.65 443.57 185.01C443.96 182.43 446.37 180.49 449.01 181.17C452.67 182.11 455.04 188.51 455.24 191.88C455.25 192.1 455.11 194.77 455.01 196.04C455.12 196.07 455.1 196.06 455.22 196.09C456.71 192.85 457.75 189.53 458.57 186.37C459.05 184.54 459.4 182.77 459.71 181.03C458.55 180.72 453.27 179.22 451.24 177.55C449.29 175.95 447.26 173.36 447.37 170.7C447.48 168.09 449.66 165.9 452.36 166.28C456.1 166.82 459.16 172.91 459.73 176.24C459.76 176.42 459.87 178.3 459.93 179.66C460.06 178.88 460.2 178.07 460.31 177.31C460.72 174.48 460.91 171.86 461.07 169.54C461.15 168.22 461.19 167.03 461.22 165.91C460.24 165.01 456.36 161.32 455.34 158.95C454.35 156.63 453.73 153.4 455.06 151.08C456.36 148.81 459.3 147.87 461.52 149.46C464.6 151.66 464.5 158.48 463.47 161.7C463.38 161.98 461.49 166.17 461.44 166.12C461.44 166.12 461.39 166.08 461.38 166.07C461.38 167.15 461.35 168.3 461.31 169.56C461.2 171.89 461.07 174.52 460.72 177.37C460.38 180.22 459.93 183.31 459.17 186.52C458.41 189.74 457.44 193.08 456 196.4C455.98 196.44 455.96 196.47 455.95 196.51C456.67 195.67 458.77 193.39 458.95 193.23C461.5 191.02 467.74 188.25 470.97 190.21C473.3 191.62 473.6 194.7 472.02 196.79C470.41 198.92 467.2 199.62 464.68 199.63C461.83 199.63 456.22 197.08 455.77 196.88C454.37 200.03 452.67 203.14 450.79 206.2C449.71 207.95 448.57 209.68 447.41 211.4C448.06 210.69 448.64 210.07 448.73 209.99C451.28 207.78 457.52 205.01 460.75 206.97C463.08 208.38 463.38 211.46 461.8 213.55C460.19 215.68 456.98 216.38 454.46 216.39C451.9 216.39 447.07 214.31 445.8 213.75C445.35 214.4 444.9 215.06 444.44 215.72C442.25 218.85 440.05 221.97 437.99 225.1C437.26 226.2 436.59 227.31 435.91 228.42C436.49 227.79 436.98 227.27 437.06 227.2C439.61 224.99 445.85 222.22 449.08 224.18C451.41 225.59 451.71 228.67 450.13 230.76C448.52 232.89 445.31 233.59 442.79 233.6C440.35 233.6 435.87 231.72 434.36 231.06C433.7 232.22 433.03 233.37 432.44 234.52C432.06 235.31 431.63 236.05 431.29 236.87C430.93 237.67 430.58 238.47 430.23 239.26C429.61 240.8 428.97 242.39 428.41 243.91C428.01 244.96 427.65 245.98 427.28 247C427.99 245.9 429.43 243.76 429.57 243.6C431.76 241.03 437.5 237.35 440.99 238.8C443.51 239.85 444.27 242.84 443.02 245.14C441.75 247.49 438.68 248.67 436.19 249.06C433.45 249.48 427.73 247.9 427.02 247.7C426.42 249.39 425.85 251.04 425.34 252.6C423.57 257.96 422.3 262.5 421.45 265.71L418.91 265.34C418.93 265.27 418.95 265.2 418.97 265.13C419.9 261.9 421.3 257.3 423.22 251.88C423.82 250.16 424.5 248.34 425.22 246.48C424.81 246.24 422.47 244.88 420.45 243.33C418.23 245.13 412.97 246.84 412.29 247.06C412.72 248.8 413.16 250.49 413.59 252.07C415.07 257.52 416.52 262.01 417.58 265.15L414.8 264.75C413.85 261.65 412.65 257.52 411.43 252.64C410.99 250.87 410.55 248.98 410.11 247.03C409.38 247.08 403.45 247.41 400.86 246.41C398.5 245.51 395.76 243.7 395.01 241.14C394.28 238.63 395.66 235.86 398.34 235.37C402.06 234.69 406.89 239.51 408.49 242.48C408.58 242.66 409.39 244.67 409.88 245.96C409.71 245.16 409.53 244.39 409.36 243.57C409.02 241.94 408.72 240.31 408.4 238.56C408.27 237.71 408.15 236.85 408.02 235.98C407.87 235.12 407.83 234.19 407.73 233.29C407.54 231.19 407.45 229.06 407.41 226.91C405.99 227.21 400.91 228.19 398.44 227.65C395.98 227.11 392.98 225.75 391.86 223.32C390.76 220.95 391.7 218 394.28 217.11C397.86 215.88 403.36 219.9 405.39 222.61C405.52 222.78 406.75 224.88 407.41 226.05C407.39 224.76 407.37 223.47 407.41 222.16C407.49 218.38 407.68 214.56 407.86 210.75C407.92 209.58 407.96 208.42 408 207.25C407.49 207.36 401.49 208.66 398.72 208.05C396.25 207.51 393.26 206.15 392.14 203.72C391.04 201.35 391.98 198.4 394.56 197.51C398.14 196.28 403.64 200.3 405.67 203.01C405.82 203.21 407.6 206.24 408.01 207.03C408.11 204.46 408.18 201.9 408.16 199.38C408.13 195.89 407.9 192.48 407.44 189.18C407.2 189.23 400.94 190.61 398.1 189.99C395.63 189.45 392.64 188.09 391.52 185.66C390.42 183.29 391.36 180.34 393.94 179.45C397.52 178.22 403.02 182.24 405.05 184.95C405.18 185.13 406.54 187.43 407.16 188.54C407.27 188.5 407.25 188.51 407.36 188.47C406.82 184.95 405.85 181.6 404.8 178.51C404.19 176.72 403.51 175.04 402.81 173.43C401.67 173.81 396.44 175.47 393.82 175.2C391.31 174.94 388.19 173.91 386.81 171.62C385.46 169.38 386.07 166.35 388.53 165.19C391.95 163.57 397.86 166.97 400.17 169.43C400.3 169.56 401.42 171.07 402.23 172.17C401.9 171.45 401.58 170.69 401.25 170C400.03 167.41 398.75 165.12 397.6 163.1C396.94 161.96 396.31 160.94 395.72 159.99C394.41 159.78 389.14 158.85 386.98 157.42C384.87 156.03 382.58 153.68 382.41 151.01C382.24 148.4 384.18 145.99 386.9 146.09V146.06Z" fill="#263238"/>
<path d="M146.01 423.76L146.48 420.63C146.33 420.61 131.02 418.22 123.7 411.18C122.13 409.67 122.17 408.58 122.33 407.89C124.02 400.86 149.9 389.89 201.44 374.34C209.93 371.78 218.15 369.34 226.03 367C277.49 351.72 311.49 341.63 313.84 330.18C314.43 327.32 313.14 324.54 310 321.94C292.16 307.13 221.16 301.76 218.15 301.53L217.92 304.68C218.65 304.73 290.92 310.19 307.98 324.37C311.25 327.08 310.87 328.93 310.74 329.54C308.77 339.14 271.86 350.09 225.13 363.96C217.25 366.3 209.02 368.74 200.53 371.3C131.69 392.07 120.78 400.8 119.25 407.14C118.71 409.38 119.47 411.5 121.5 413.45C129.55 421.19 145.33 423.65 146 423.75L146.01 423.76Z" fill="white" stroke="#263238" stroke-linecap="round" stroke-linejoin="round"/>
<path d="M307.77 320.31L303.21 321.3C280.37 309.41 218.61 304.74 217.94 304.69L218.17 301.54C221.07 301.75 286.92 306.74 307.77 320.31Z" fill="#263238" stroke="#263238" stroke-linecap="round" stroke-linejoin="round"/>
<path d="M137.52 427.14C136.32 423.25 137.81 418.99 141.21 416.75C145.81 413.73 154.18 410.05 168.38 409.03C193.51 407.23 210.57 416.51 218.64 424.29C226.72 432.07 224.92 441.34 213.25 447.03C201.58 452.71 193.2 454.21 183.33 452.71C173.46 451.21 157.3 443.44 151.62 439.55C145.94 435.66 139.05 432.07 137.56 427.28C137.55 427.23 137.53 427.18 137.52 427.14Z" fill="#92E3A9" stroke="#263238" stroke-linecap="round" stroke-linejoin="round"/>
<path d="M176.16 445.53C190.22 455.1 203.69 450.62 203.69 450.62L204 450.88C196.71 453.31 190.41 453.78 183.34 452.71C173.47 451.21 157.31 443.44 151.63 439.55C145.95 435.66 139.06 432.07 137.57 427.28C137.56 427.23 137.54 427.18 137.53 427.14C137.41 426.75 137.32 426.36 137.26 425.97C146.12 428.12 163.72 437.06 176.17 445.53H176.16Z" fill="white" stroke="#263238" stroke-linecap="round" stroke-linejoin="round"/>
<path d="M196.8 429.07C196.8 431.22 199.41 432.96 202.63 432.96C205.85 432.96 208.46 431.22 208.46 429.07C208.46 426.92 205.85 425.18 202.63 425.18C199.41 425.18 196.8 426.92 196.8 429.07Z" fill="white" stroke="#263238" stroke-linecap="round" stroke-linejoin="round"/>
<path d="M314.37 369.59L315.01 366.49C305.55 364.53 299.29 361.7 298.41 360.29C299.38 359.26 303.43 357.12 306.74 355.37C318.81 349 339 338.33 332.58 324.58C328.82 316.52 308.38 309.48 270.07 303.05C242.28 298.38 215.17 295.88 214.9 295.85L214.61 299C214.88 299.02 241.89 301.52 269.56 306.17C317.64 314.25 327.88 322.01 329.71 325.92C334.86 336.95 317.04 346.35 305.25 352.58C298.09 356.36 294.82 358.09 295.17 360.48C295.85 365.25 308.82 368.44 314.37 369.58V369.59Z" fill="white" stroke="#263238" stroke-linecap="round" stroke-linejoin="round"/>
<path d="M214.9 295.85C215.17 295.87 242.28 298.38 270.07 303.05C295.74 307.36 313.37 311.95 323.35 316.93L318.11 318.07C309.45 314.53 294.67 310.4 269.56 306.18C241.89 301.53 214.88 299.04 214.61 299.01L214.9 295.86V295.85Z" fill="#263238" stroke="#263238" stroke-linecap="round" stroke-linejoin="round"/>
<path d="M216.19 392.13L273.38 424.69L481.73 352.43L418.38 329.6L216.19 392.13Z" fill="white" stroke="#263238" stroke-linecap="round" stroke-linejoin="round"/>
<path d="M308.07 375.6L301.27 377.68L294.16 373.97L300.88 371.96L308.07 375.6Z" fill="#263238" stroke="#263238" stroke-linecap="round" stroke-linejoin="round"/>
<path d="M318.62 366.92L324.51 370.55L310.97 374.7L303.81 371.08L318.28 366.75L318.62 366.92Z" fill="#263238" stroke="#263238" stroke-linecap="round" stroke-linejoin="round"/>
<path d="M298.4 378.56L291.17 380.78L283.97 377.02L291.27 374.84L298.4 378.56Z" fill="#263238" stroke="#263238" stroke-linecap="round" stroke-linejoin="round"/>
<path d="M344.61 364.37L338.07 366.38L331.36 362.83L337.36 361.03L344.61 364.37Z" fill="#263238" stroke="#263238" stroke-linecap="round" stroke-linejoin="round"/>
<path d="M335.22 367.26L327.19 369.72L321.02 365.93L328.49 363.69L335.22 367.26Z" fill="#263238" stroke="#263238" stroke-linecap="round" stroke-linejoin="round"/>
<path d="M302.66 386.78L309.81 384.51L316.91 388.22L309.85 390.53L302.66 386.78Z" fill="#263238" stroke="#263238" stroke-linecap="round" stroke-linejoin="round"/>
<path d="M288.3 381.67L279.17 384.47L271.85 380.65L281.07 377.89L288.3 381.67Z" fill="#263238" stroke="#263238" stroke-linecap="round" stroke-linejoin="round"/>
<path d="M362.11 359L355.86 360.92L348.92 357.57L355.33 355.65L362.11 359Z" fill="#263238" stroke="#263238" stroke-linecap="round" stroke-linejoin="round"/>
<path d="M280.47 393.8L287.95 391.43L295.34 395.29L287.54 397.85L280.47 393.8Z" fill="#263238" stroke="#263238" stroke-linecap="round" stroke-linejoin="round"/>
<path d="M271.93 388.9L278.96 386.74L285.31 390.06L277.99 392.38L271.93 388.9Z" fill="#263238" stroke="#263238" stroke-linecap="round" stroke-linejoin="round"/>
<path d="M276.3 385.35L269.42 387.46L262.45 383.47L268.95 381.52L276.3 385.35Z" fill="#263238" stroke="#263238" stroke-linecap="round" stroke-linejoin="round"/>
<path d="M290.79 390.54L299.82 387.68L307.06 391.45L298.14 394.37L290.79 390.54Z" fill="#263238" stroke="#263238" stroke-linecap="round" stroke-linejoin="round"/>
<path d="M251.43 386.77L259.67 384.3L266.66 388.31L258.55 390.8L251.43 386.77Z" fill="#263238" stroke="#263238" stroke-linecap="round" stroke-linejoin="round"/>
<path d="M261.08 392.23L269.17 389.75L275.26 393.24L267.3 395.76L261.08 392.23Z" fill="#263238" stroke="#263238" stroke-linecap="round" stroke-linejoin="round"/>
<path d="M346.03 358.51L352.89 361.83L347.64 363.44L340.42 360.12L345.92 358.47L346.03 358.51Z" fill="#263238" stroke="#263238" stroke-linecap="round" stroke-linejoin="round"/>
<path d="M443.9 353.32L438.01 350.74L441.63 349.55L447.82 351.99L443.9 353.32Z" fill="#263238" stroke="#263238" stroke-linecap="round" stroke-linejoin="round"/>
<path d="M442.22 347.14L435.11 349.47L429.01 346.79L436.22 344.51L442.22 347.14Z" fill="#263238" stroke="#263238" stroke-linecap="round" stroke-linejoin="round"/>
<path d="M433.3 343.22L426.08 345.51L420.78 343.19L428.09 340.94L433.3 343.22Z" fill="#263238" stroke="#263238" stroke-linecap="round" stroke-linejoin="round"/>
<path d="M413 358.94L417.24 357.55L423.81 360.1L419.05 361.71L413 358.94Z" fill="#263238" stroke="#263238" stroke-linecap="round" stroke-linejoin="round"/>
<path d="M429.16 353.64L435 351.72L440.93 354.32L435.13 356.28L429.16 353.64Z" fill="#263238" stroke="#263238" stroke-linecap="round" stroke-linejoin="round"/>
<path d="M423.03 346.47L419.93 347.46L414.86 345.01L417.69 344.14L423.03 346.47Z" fill="#263238" stroke="#263238" stroke-linecap="round" stroke-linejoin="round"/>
<path d="M420.4 356.51L426.17 354.62L432.17 357.28L426.93 359.05L420.4 356.51Z" fill="#263238" stroke="#263238" stroke-linecap="round" stroke-linejoin="round"/>
<path d="M370.94 356.29L365.04 358.1L358.29 354.77L364.06 353.04L370.94 356.29Z" fill="#263238" stroke="#263238" stroke-linecap="round" stroke-linejoin="round"/>
<path d="M387.59 351.18L382.73 352.67L376.39 349.35L381.2 347.91L387.59 351.18Z" fill="#263238" stroke="#263238" stroke-linecap="round" stroke-linejoin="round"/>
<path d="M412.38 349.84L407.1 347.39L411.9 345.92L417 348.38L412.38 349.84Z" fill="#263238" stroke="#263238" stroke-linecap="round" stroke-linejoin="round"/>
<path d="M379.87 353.55L373.93 355.37L367.08 352.14L373.51 350.21L379.87 353.55Z" fill="#263238" stroke="#263238" stroke-linecap="round" stroke-linejoin="round"/>
<path d="M389.59 345.46L396.36 348.48L390.48 350.29L384.12 347.03L389.5 345.42L389.59 345.46Z" fill="#263238" stroke="#263238" stroke-linecap="round" stroke-linejoin="round"/>
<path d="M405.21 345.76L399.42 347.54L392.6 344.49L398.71 342.66L405.21 345.76Z" fill="#263238" stroke="#263238" stroke-linecap="round" stroke-linejoin="round"/>
<path d="M414.73 342.84L408.19 344.85L401.72 341.76L407.99 339.89L414.73 342.84Z" fill="#263238" stroke="#263238" stroke-linecap="round" stroke-linejoin="round"/>
<path d="M329.43 376.1L319.77 379.15L313.69 376.08L323.9 372.94L329.43 376.1Z" fill="#263238" stroke="#263238" stroke-linecap="round" stroke-linejoin="round"/>
<path d="M316.9 380.06L310.01 382.24L303.93 379.07L310.78 376.97L316.9 380.06Z" fill="#263238" stroke="#263238" stroke-linecap="round" stroke-linejoin="round"/>
<path d="M281.83 385.86L290.96 383.05L297.18 386.3L288.15 389.16L281.83 385.86Z" fill="#263238" stroke="#263238" stroke-linecap="round" stroke-linejoin="round"/>
<path d="M307.17 383.14L300.02 385.4L293.83 382.17L301.07 379.95L307.17 383.14Z" fill="#263238" stroke="#263238" stroke-linecap="round" stroke-linejoin="round"/>
<path d="M404.15 361.84L410.05 359.9L416.13 362.69L410.23 364.68L404.15 361.84Z" fill="#263238" stroke="#263238" stroke-linecap="round" stroke-linejoin="round"/>
<path d="M358.24 366.98L351.18 369.21L346.07 366.13L352.94 364.02L358.24 366.98Z" fill="#263238" stroke="#263238" stroke-linecap="round" stroke-linejoin="round"/>
<path d="M348.5 370.06L341.63 372.23L336.36 369.11L343.36 366.96L348.5 370.06Z" fill="#263238" stroke="#263238" stroke-linecap="round" stroke-linejoin="round"/>
<path d="M338.93 373.09L332.16 375.23L326.66 372.09L333.64 369.95L338.93 373.09Z" fill="#263238" stroke="#263238" stroke-linecap="round" stroke-linejoin="round"/>
<path d="M407.78 353.51L412.24 352.1L418.38 354.95L413.65 356.5L407.78 353.51Z" fill="#263238" stroke="#263238" stroke-linecap="round" stroke-linejoin="round"/>
<path d="M417.82 341.89L411.11 338.95L421.38 335.87L421.36 335.93L428.88 338.49L417.82 341.89Z" fill="#263238" stroke="#263238" stroke-linecap="round" stroke-linejoin="round"/>
<path d="M432.32 337.44L424.76 334.86L426.92 334.22L434.23 336.85L432.32 337.44Z" fill="#263238" stroke="#263238" stroke-linecap="round" stroke-linejoin="round"/>
<path d="M233.6 389.91L223.27 393L220.59 391.47L230.77 388.36L233.6 389.91Z" fill="#263238" stroke="#263238" stroke-linecap="round" stroke-linejoin="round"/>
<path d="M415.21 351.16L419.77 349.72L425.66 352.57L421.31 353.99L415.21 351.16Z" fill="#263238" stroke="#263238" stroke-linecap="round" stroke-linejoin="round"/>
<path d="M366.97 364.22L361 366.1L355.73 363.16L361.72 361.33L366.97 364.22Z" fill="#263238" stroke="#263238" stroke-linecap="round" stroke-linejoin="round"/>
<path d="M432.11 350.45L428.55 351.62L422.69 348.79L425.96 347.76L432.11 350.45Z" fill="#263238" stroke="#263238" stroke-linecap="round" stroke-linejoin="round"/>
<path d="M376.3 361.26L369.74 363.34L364.52 360.46L371.22 358.41L376.3 361.26Z" fill="#263238" stroke="#263238" stroke-linecap="round" stroke-linejoin="round"/>
<path d="M381.57 361.81L387.45 359.94L393.6 363.08L387.43 365.1L381.57 361.81Z" fill="#263238" stroke="#263238" stroke-linecap="round" stroke-linejoin="round"/>
<path d="M372.29 364.74L378.82 362.68L384.71 365.99L378.35 368.08L372.29 364.74Z" fill="#263238" stroke="#263238" stroke-linecap="round" stroke-linejoin="round"/>
<path d="M353.58 370.66L360.77 368.39L366.93 371.82L359.53 374.25L353.58 370.66Z" fill="#263238" stroke="#263238" stroke-linecap="round" stroke-linejoin="round"/>
<path d="M312.65 383.62L319.58 381.42L326.69 385.02L319.71 387.3L312.65 383.62Z" fill="#263238" stroke="#263238" stroke-linecap="round" stroke-linejoin="round"/>
<path d="M344.06 373.68L350.91 371.51L356.89 375.11L350.19 377.31L344.06 373.68Z" fill="#263238" stroke="#263238" stroke-linecap="round" stroke-linejoin="round"/>
<path d="M322.46 380.51L341.36 374.53L347.52 378.18L329.52 384.09L322.46 380.51Z" fill="#263238" stroke="#263238" stroke-linecap="round" stroke-linejoin="round"/>
<path d="M363.54 367.51L369.52 365.62L375.61 368.97L369.66 370.93L363.54 367.51Z" fill="#263238" stroke="#263238" stroke-linecap="round" stroke-linejoin="round"/>
<path d="M392.84 356.03L387.64 357.67L382.36 354.99L387.56 353.39L392.84 356.03Z" fill="#263238" stroke="#263238" stroke-linecap="round" stroke-linejoin="round"/>
<path d="M402.24 353.05L395.72 355.12L390.48 352.49L397.14 350.45L402.24 353.05Z" fill="#263238" stroke="#263238" stroke-linecap="round" stroke-linejoin="round"/>
<path d="M390.31 359.04L395.56 357.38L401.81 360.39L396.42 362.15L390.31 359.04Z" fill="#263238" stroke="#263238" stroke-linecap="round" stroke-linejoin="round"/>
<path d="M384.77 358.58L379.05 360.39L374.01 357.55L379.47 355.87L384.77 358.58Z" fill="#263238" stroke="#263238" stroke-linecap="round" stroke-linejoin="round"/>
<path d="M409.41 350.79L405.11 352.15L400.04 349.56L404.09 348.31L409.41 350.79Z" fill="#263238" stroke="#263238" stroke-linecap="round" stroke-linejoin="round"/>
<path d="M398.49 356.45L404.92 354.42L410.83 357.43L404.7 359.44L398.49 356.45Z" fill="#263238" stroke="#263238" stroke-linecap="round" stroke-linejoin="round"/>
<path d="M445.22 346.15L439.27 343.54L446.45 341.27L452.95 343.62L445.22 346.15Z" fill="#263238" stroke="#263238" stroke-linecap="round" stroke-linejoin="round"/>
<path d="M386.39 374.96L418.93 363.97L418.96 363.98L418.97 363.96L435.02 358.54L445.69 363.26L396.51 380.26L386.39 374.96Z" fill="#263238" stroke="#263238" stroke-linecap="round" stroke-linejoin="round"/>
<path d="M465.32 356.47L455.13 351.75L459.83 350.16L470.88 354.55L465.32 356.47Z" fill="#263238" stroke="#263238" stroke-linecap="round" stroke-linejoin="round"/>
<path d="M446.77 354.57L452.23 352.73L462.45 357.46L457.37 359.22L446.77 354.57Z" fill="#263238" stroke="#263238" stroke-linecap="round" stroke-linejoin="round"/>
<path d="M437.98 357.54L443.8 355.57L454.43 360.23L448.61 362.25L437.98 357.54Z" fill="#263238" stroke="#263238" stroke-linecap="round" stroke-linejoin="round"/>
<path d="M358.78 384.28L364.83 382.24L375.37 387.57L368.77 389.86L358.78 384.28Z" fill="#263238" stroke="#263238" stroke-linecap="round" stroke-linejoin="round"/>
<path d="M377.66 377.91L383.63 375.89L393.78 381.21L388.16 383.15L377.66 377.91Z" fill="#263238" stroke="#263238" stroke-linecap="round" stroke-linejoin="round"/>
<path d="M367.63 381.29L374.85 378.86L385.37 384.12L378.15 386.61L367.63 381.29Z" fill="#263238" stroke="#263238" stroke-linecap="round" stroke-linejoin="round"/>
<path d="M396.95 340.99L392.79 338.81L400.29 336.51L405 338.58L396.95 340.99Z" fill="#263238" stroke="#263238" stroke-linecap="round" stroke-linejoin="round"/>
<path d="M394.06 341.86L389.61 343.19L384.84 341.24L389.92 339.69L394.06 341.86Z" fill="#263238" stroke="#263238" stroke-linecap="round" stroke-linejoin="round"/>
<path d="M341.47 390.13L356.08 385.19L366.1 390.78L352.23 395.58L341.47 390.13Z" fill="#263238" stroke="#263238" stroke-linecap="round" stroke-linejoin="round"/>
<path d="M386.39 344.15L381.34 345.66L376.83 343.69L381.66 342.21L386.39 344.15Z" fill="#263238" stroke="#263238" stroke-linecap="round" stroke-linejoin="round"/>
<path d="M459.89 347.92L459.84 347.89L459.82 347.94L450.91 350.95L444.76 348.52L456.17 344.78L462.45 347.05L459.89 347.92Z" fill="#263238" stroke="#263238" stroke-linecap="round" stroke-linejoin="round"/>
<path d="M413.95 335.9L408.12 337.64L403.38 335.57L409.01 333.85L413.95 335.9Z" fill="#263238" stroke="#263238" stroke-linecap="round" stroke-linejoin="round"/>
<path d="M431.18 339.99L437.53 338.05L443.19 340.09L436.35 342.26L431.18 339.99Z" fill="#263238" stroke="#263238" stroke-linecap="round" stroke-linejoin="round"/>
<path d="M268.13 406.43L276.83 403.58L283.64 407.43L275.17 410.29L268.13 406.43Z" fill="#263238" stroke="#263238" stroke-linecap="round" stroke-linejoin="round"/>
<path d="M236.19 391.33L243.6 395.39L233.14 398.61L225.81 394.44L236.19 391.33Z" fill="#263238" stroke="#263238" stroke-linecap="round" stroke-linejoin="round"/>
<path d="M417.15 334.94L412.18 332.88L418.16 331.05L423.59 333.01L417.15 334.94Z" fill="#263238" stroke="#263238" stroke-linecap="round" stroke-linejoin="round"/>
<path d="M246.18 396.81L252.7 400.38L242.13 403.72L235.65 400.04L246.18 396.81Z" fill="#263238" stroke="#263238" stroke-linecap="round" stroke-linejoin="round"/>
<path d="M274.96 412.58L285.83 418.54L274.87 422.33L264.15 416.24L274.96 412.58Z" fill="#263238" stroke="#263238" stroke-linecap="round" stroke-linejoin="round"/>
<path d="M255.25 401.78L262.85 405.94L252.19 409.44L244.63 405.14L255.25 401.78Z" fill="#263238" stroke="#263238" stroke-linecap="round" stroke-linejoin="round"/>
<path d="M462.43 349.1L465.64 348.2L477.18 352.37L473.93 353.49L462.43 349.1Z" fill="#263238" stroke="#263238" stroke-linecap="round" stroke-linejoin="round"/>
<path d="M277.68 411.67L286.1 408.82L296.65 414.8L288.52 417.61L277.68 411.67Z" fill="#263238" stroke="#263238" stroke-linecap="round" stroke-linejoin="round"/>
<path d="M310.22 400.68L319.03 397.7L329.81 403.33L321.08 406.35L310.22 400.68Z" fill="#263238" stroke="#263238" stroke-linecap="round" stroke-linejoin="round"/>
<path d="M288.78 407.92L296.38 405.35L296.58 405.46L296.7 405.24L307.46 401.61L318.34 407.29L299.3 413.88L288.78 407.92Z" fill="#263238" stroke="#263238" stroke-linecap="round" stroke-linejoin="round"/>
<path d="M321.8 396.77L328.78 394.41L339.46 399.99L332.55 402.38L321.8 396.77Z" fill="#263238" stroke="#263238" stroke-linecap="round" stroke-linejoin="round"/>
<path d="M254.67 410.85L265.38 407.33L272.45 411.21L261.7 414.84L254.67 410.85Z" fill="#263238" stroke="#263238" stroke-linecap="round" stroke-linejoin="round"/>
<path d="M378.22 346.6L373.68 347.96L369.26 346L373.74 344.63L378.22 346.6Z" fill="#263238" stroke="#263238" stroke-linecap="round" stroke-linejoin="round"/>
<path d="M331.54 393.48L338.66 391.07L349.46 396.53L342.21 399.04L331.54 393.48Z" fill="#263238" stroke="#263238" stroke-linecap="round" stroke-linejoin="round"/>
<path d="M325.43 362.41L318.49 364.49L314.92 362.63L321.24 360.69L325.43 362.41Z" fill="#263238" stroke="#263238" stroke-linecap="round" stroke-linejoin="round"/>
<path d="M290 399.26L297.95 396.65L304.87 400.26L296.61 403.05L290 399.26Z" fill="#263238" stroke="#263238" stroke-linecap="round" stroke-linejoin="round"/>
<path d="M312.46 391.9L319.52 389.58L326.19 393.06L319.21 395.42L312.46 391.9Z" fill="#263238" stroke="#263238" stroke-linecap="round" stroke-linejoin="round"/>
<path d="M239.03 390.48L248.63 387.61L255.78 391.65L246.41 394.53L239.03 390.48Z" fill="#263238" stroke="#263238" stroke-linecap="round" stroke-linejoin="round"/>
<path d="M279.54 402.69L287.3 400.15L293.94 403.95L286.32 406.53L279.54 402.69Z" fill="#263238" stroke="#263238" stroke-linecap="round" stroke-linejoin="round"/>
<path d="M248.99 395.94L258.3 393.08L264.56 396.62L255.48 399.5L248.99 395.94Z" fill="#263238" stroke="#263238" stroke-linecap="round" stroke-linejoin="round"/>
<path d="M269.81 397.17L277.74 394.66L284.84 398.73L277.06 401.28L269.81 397.17Z" fill="#263238" stroke="#263238" stroke-linecap="round" stroke-linejoin="round"/>
<path d="M258.03 400.9L267.06 398.04L274.35 402.17L265.6 405.04L258.03 400.9Z" fill="#263238" stroke="#263238" stroke-linecap="round" stroke-linejoin="round"/>
<path d="M300.75 395.74L309.67 392.81L316.45 396.35L307.63 399.33L300.75 395.74Z" fill="#263238" stroke="#263238" stroke-linecap="round" stroke-linejoin="round"/>
<path d="M377.82 370.47L384.2 368.38L390.42 371.37L383.81 373.61L377.82 370.47Z" fill="#263238" stroke="#263238" stroke-linecap="round" stroke-linejoin="round"/>
<path d="M368.74 373.45L375.03 371.39L381.05 374.54L375.01 376.58L368.74 373.45Z" fill="#263238" stroke="#263238" stroke-linecap="round" stroke-linejoin="round"/>
<path d="M387.09 367.43L392.47 365.67L398.31 368.71L393.28 370.41L387.09 367.43Z" fill="#263238" stroke="#263238" stroke-linecap="round" stroke-linejoin="round"/>
<path d="M332.18 385.43L355.82 377.68L362.19 380.91L338.83 388.79L332.18 385.43Z" fill="#263238" stroke="#263238" stroke-linecap="round" stroke-linejoin="round"/>
<path d="M322.32 388.67L329.35 386.36L336.03 389.74L328.96 392.13L322.32 388.67Z" fill="#263238" stroke="#263238" stroke-linecap="round" stroke-linejoin="round"/>
<path d="M358.65 376.75L365.9 374.38L372.19 377.53L364.99 379.96L358.65 376.75Z" fill="#263238" stroke="#263238" stroke-linecap="round" stroke-linejoin="round"/>
<path d="M352.35 354.34L346.03 356.24L341.66 354.44L348.07 352.48L352.35 354.34Z" fill="#263238" stroke="#263238" stroke-linecap="round" stroke-linejoin="round"/>
<path d="M342.82 357.2L337.5 358.79L333.3 357L338.48 355.42L342.82 357.2Z" fill="#263238" stroke="#263238" stroke-linecap="round" stroke-linejoin="round"/>
<path d="M334.34 359.74L328.63 361.45L324.42 359.72L330.17 357.96L334.34 359.74Z" fill="#263238" stroke="#263238" stroke-linecap="round" stroke-linejoin="round"/>
<path d="M315.59 365.35L309.81 367.08H309.82L306.1 365.32L312.04 363.5L315.59 365.35Z" fill="#263238" stroke="#263238" stroke-linecap="round" stroke-linejoin="round"/>
<path d="M395.27 364.75L401.22 362.8L407.34 365.66L401.08 367.77L395.27 364.75Z" fill="#263238" stroke="#263238" stroke-linecap="round" stroke-linejoin="round"/>
<path d="M361.26 351.68L355.48 353.41L351.17 351.54L357.2 349.69L361.26 351.68Z" fill="#263238" stroke="#263238" stroke-linecap="round" stroke-linejoin="round"/>
<path d="M370.57 348.89L364.23 350.79L360.15 348.79L366.18 346.95L370.57 348.89Z" fill="#263238" stroke="#263238" stroke-linecap="round" stroke-linejoin="round"/>
<path d="M266.27 380.12L259.93 382.02L256.99 380.34L263.11 378.47L266.27 380.12Z" fill="#263238" stroke="#263238" stroke-linecap="round" stroke-linejoin="round"/>
<path d="M278.39 376.49L269.17 379.25L265.98 377.59L275.13 374.79L278.39 376.49Z" fill="#263238" stroke="#263238" stroke-linecap="round" stroke-linejoin="round"/>
<path d="M233.59 387.5L243.23 384.55L246.09 386.17L236.43 389.06L233.59 387.5Z" fill="#263238" stroke="#263238" stroke-linecap="round" stroke-linejoin="round"/>
<path d="M257.15 382.86L248.89 385.33L246.01 383.7L254.23 381.19L257.15 382.86Z" fill="#263238" stroke="#263238" stroke-linecap="round" stroke-linejoin="round"/>
<path d="M306.8 367.99L301.07 369.7L297.42 367.98L303.1 366.24L306.8 367.99Z" fill="#263238" stroke="#263238" stroke-linecap="round" stroke-linejoin="round"/>
<path d="M298.05 370.61L291.48 372.57L288.12 370.82L294.42 368.89L298.05 370.61Z" fill="#263238" stroke="#263238" stroke-linecap="round" stroke-linejoin="round"/>
<path d="M288.59 373.44L281.29 375.63L278 373.91L285.25 371.7L288.59 373.44Z" fill="#263238" stroke="#263238" stroke-linecap="round" stroke-linejoin="round"/>
<path d="M273.38 424.69L273.86 431.16L216.79 399.37L216.19 392.13L273.38 424.69Z" fill="white" stroke="#263238" stroke-linecap="round" stroke-linejoin="round"/>
<path d="M224.49 403.57V411.41L217.18 407.46L216.79 399.37L224.49 403.57Z" fill="white" stroke="#263238" stroke-linecap="round" stroke-linejoin="round"/>
<path d="M224.49 411.41L234.56 409.44L224.29 403.57L224.49 411.41Z" fill="#263238" stroke="#263238" stroke-linecap="round" stroke-linejoin="round"/>
<path d="M273.86 431.16L481.77 358.08L481.73 352.43L273.38 424.69L273.86 431.16Z" fill="white" stroke="#263238" stroke-linecap="round" stroke-linejoin="round"/>
<path d="M226.76 311.09L287.22 332.89L176.86 360.99L115.27 334.92L226.76 311.09Z" fill="#263238" stroke="#263238" stroke-linecap="round" stroke-linejoin="round"/>
<path d="M287.22 332.89V336.32L177.04 365.5L176.86 360.99L287.22 332.89Z" fill="white" stroke="#263238" stroke-linecap="round" stroke-linejoin="round"/>
<path d="M176.86 360.99L115.27 334.92L115.72 338.69L177.04 365.5L176.86 360.99Z" fill="white" stroke="#263238" stroke-linecap="round" stroke-linejoin="round"/>
<path d="M219.64 283.9L222.13 322.46L225.61 323.95L162.67 338.88L159.19 337.38L156.45 295.59L219.64 283.9Z" fill="white" stroke="#263238" stroke-linecap="round" stroke-linejoin="round"/>
<path d="M223.12 285.39L225.61 323.95L162.67 338.88L159.93 297.08L223.12 285.39Z" fill="#263238" stroke="#263238" stroke-linecap="round" stroke-linejoin="round"/>
<path d="M16.12 42.26L19.89 40.83L25.1501 41.15L25.59 42.59L319.5 60.08C321.1 60.17 322.41 61.41 322.57 63.01L342 263.9C342.15 265.27 341.21 266.53 339.86 266.79L65.78 319.31L68.82 321.14L56.67 323.5L55.26 323.31L51.83 321.65C50.73 321.33 49.85 320.4 49.69 319.18L14.11 45.44C13.92 43.98 14.82 42.69 16.12 42.25V42.26Z" fill="white" stroke="#263238" stroke-linecap="round" stroke-linejoin="round"/>
<path d="M324.33 61.09L345.97 265.57C346.12 266.94 345.18 268.2 343.83 268.46L57.17 323.39C55.49 323.71 53.88 322.55 53.66 320.85L18.08 43.99C17.84 42.14 19.34 40.53 21.2 40.64L321.25 58.16C322.85 58.25 324.16 59.49 324.32 61.09H324.33Z" fill="#263238" stroke="#263238" stroke-linecap="round" stroke-linejoin="round"/>
<path d="M317.74 67.26L335.96 236.86L61.7 278.93L30.8 51.36L317.74 67.26Z" fill="#92E3A9" stroke="#263238" stroke-linecap="round" stroke-linejoin="round"/>
<path d="M287.54 179.66C243.64 166.22 194.49 151.42 149.08 138.3C103.06 125.01 66.05 120.01 40.16 118.53" stroke="#263238" stroke-linecap="round" stroke-linejoin="round"/>
<path d="M320.2 92.63C320.2 92.63 231.58 94.68 134.77 134.22" stroke="#263238" stroke-linecap="round" stroke-linejoin="round"/>
<path d="M249.77 250.91C249.77 250.91 182.48 187.77 118.75 154.53C65.07 126.53 41.95 125.86 41.95 125.86" stroke="#263238" stroke-linecap="round" stroke-linejoin="round"/>
<path d="M343.83 268.46L57.17 323.39C55.49 323.71 53.88 322.55 53.66 320.85L50.2 293.96L343.91 246.13L345.97 265.58C346.12 266.95 345.18 268.21 343.83 268.47V268.46Z" fill="white" stroke="#263238" stroke-linecap="round" stroke-linejoin="round"/>
<path d="M335.96 236.86L294.57 243.21L285.83 164.1L327.82 161.08L335.96 236.86Z" fill="#263238" stroke="#263238" stroke-linecap="round" stroke-linejoin="round"/>
<path d="M290.42 188.65L299.21 187.64L302.53 213.63L293.32 214.83L290.42 188.65Z" fill="#BABDBF" stroke="#263238" stroke-linecap="round" stroke-linejoin="round"/>
<path d="M303.96 185.89C303.96 185.96 303.99 186.02 304.02 186.07L290.31 187.65L288.09 167.52L301.37 166.57L303.96 185.89Z" fill="#BABDBF" stroke="#263238" stroke-linecap="round" stroke-linejoin="round"/>
<path d="M303.52 213.5L300.2 187.52L313.32 186.01L316.52 211.82L303.52 213.5Z" fill="#BABDBF" stroke="#263238" stroke-linecap="round" stroke-linejoin="round"/>
<path d="M300.76 214.87L316.64 212.81L319.51 235.91L303.52 238.36L300.76 214.87Z" fill="#BABDBF" stroke="#263238" stroke-linecap="round" stroke-linejoin="round"/>
<path d="M304.94 185.97C304.96 185.9 304.97 185.83 304.96 185.76L302.38 166.5L310.83 165.89L313.21 185.02L304.95 185.97H304.94Z" fill="#BABDBF" stroke="#263238" stroke-linecap="round" stroke-linejoin="round"/>
<path d="M299.77 215L302.53 238.51L296.04 239.51L293.43 215.82L299.77 215Z" fill="#BABDBF" stroke="#263238" stroke-linecap="round" stroke-linejoin="round"/>
</g>
<defs>
<clipPath id="clip0_48_100">
<rect width="486.01" height="477.5" fill="white" transform="matrix(-1 0 0 1 486.01 0)"/>
</clipPath>
</defs>
</svg>
